<?xml version="1.0" standalone="no"?>
<!DOCTYPE svg PUBLIC "-//W3C//DTD SVG 20010904//EN"
 "http://www.w3.org/TR/2001/REC-SVG-20010904/DTD/svg10.dtd">
<svg version="1.0" xmlns="http://www.w3.org/2000/svg"
 width="300.000000pt" height="225.000000pt" viewBox="0 0 300.000000 225.000000"
 preserveAspectRatio="xMidYMid meet">
<metadata>
Created by potrace 1.10, written by Peter Selinger 2001-2011
</metadata>
<g transform="translate(0.000000,225.000000) scale(0.100000,-0.100000)"
fill="#000000" stroke="none">
<path d="M0 2193 c0 -68 5 -67 13 5 4 30 2 52 -3 52 -6 0 -10 -25 -10 -57z"/>
<path d="M200 2231 c0 -11 -5 -23 -10 -26 -6 -3 -8 -17 -6 -30 4 -24 -15 -51
-27 -38 -4 3 -7 0 -7 -8 0 -12 -2 -12 -9 0 -6 9 -11 10 -15 3 -4 -6 3 -16 14
-22 13 -7 20 -7 20 0 0 5 5 10 12 10 16 0 -20 -38 -43 -45 -11 -4 -19 -13 -19
-21 0 -13 5 -12 28 4 l27 20 2 -32 c2 -29 -1 -34 -35 -46 -20 -8 -41 -15 -47
-15 -5 0 -16 -6 -24 -14 -12 -11 -16 -11 -26 3 -7 9 -18 16 -25 16 -10 0 -9
-4 1 -17 11 -13 11 -17 2 -20 -7 -3 -13 -10 -13 -17 0 -8 12 -11 35 -8 19 2
35 8 35 12 0 4 13 10 29 13 16 3 46 23 67 43 22 21 43 37 47 36 4 -1 3 6 -3
17 -14 27 -13 30 11 24 13 -4 18 -11 15 -22 -5 -14 -4 -13 7 1 10 13 23 16 50
11 40 -6 90 10 119 39 10 10 27 18 37 18 11 0 22 4 26 10 3 5 12 7 19 4 7 -3
16 1 19 9 3 8 27 20 54 27 79 21 155 70 109 70 -7 0 -39 -11 -70 -25 -67 -30
-78 -31 -69 -7 6 15 4 15 -9 4 -14 -11 -20 -11 -37 0 -12 7 -21 18 -21 24 0 8
-25 11 -75 11 -72 -1 -74 -2 -41 -13 19 -7 47 -11 62 -9 25 2 26 1 10 -10 -10
-8 -20 -32 -23 -54 -3 -23 -10 -44 -16 -48 -18 -11 -75 -14 -81 -4 -3 5 -15 7
-27 4 -12 -4 -25 0 -31 8 -7 10 -8 5 -3 -16 6 -28 5 -29 -11 -13 -11 10 -14
23 -9 35 4 10 9 42 11 71 3 47 2 52 -16 52 -13 0 -20 -7 -20 -19z m303 -38
c26 -8 21 -20 -15 -33 -51 -20 -56 -19 -51 1 3 10 10 19 15 19 6 0 7 7 4 16
-5 12 -2 15 11 9 10 -4 26 -10 36 -12z"/>
<path d="M2813 2178 c-2 -5 -1 -8 4 -8 4 0 1 -5 -7 -10 -10 -7 18 -10 88 -10
94 0 102 2 102 19 0 15 -5 18 -22 14 -13 -3 -29 -10 -35 -16 -9 -6 -13 -6 -13
1 0 12 -110 21 -117 10z"/>
<path d="M2919 1996 c-2 -2 -96 -7 -209 -11 -113 -3 -212 -8 -220 -10 -8 -2
-121 -6 -250 -10 -536 -13 -1051 -33 -1058 -40 -3 -2 -2 -11 2 -20 4 -12 16
-15 53 -10 65 7 433 23 683 30 248 7 664 22 815 31 61 3 145 5 188 4 71 -1 77
0 77 19 0 18 -6 21 -38 21 -21 0 -41 -2 -43 -4z"/>
<path d="M2778 1925 c-2 -1 -140 -5 -308 -9 -168 -3 -343 -9 -390 -11 -47 -3
-164 -7 -260 -10 -96 -3 -267 -10 -380 -15 -113 -6 -236 -9 -275 -9 -38 1 -77
-1 -85 -4 -8 -3 -82 -8 -165 -11 -82 -4 -204 -10 -270 -14 -66 -4 -162 -6
-212 -6 -55 1 -93 -3 -93 -8 0 -7 -33 -8 -85 -5 -47 3 -83 1 -80 -3 3 -5 -33
-8 -80 -8 -79 1 -106 -4 -93 -17 3 -3 124 1 269 10 931 53 1468 77 2194 96
237 6 455 15 485 19 47 7 38 8 -57 8 -62 0 -113 -1 -115 -3z"/>
<path d="M2520 1819 c-404 -9 -1044 -33 -1620 -59 -891 -41 -920 -43 -897 -66
6 -6 327 7 552 23 44 3 185 7 312 8 132 2 253 8 281 15 27 6 53 10 58 9 5 -2
131 1 279 6 149 4 329 9 400 11 72 2 148 5 170 8 22 2 136 7 253 11 202 7 287
9 570 13 101 2 122 5 122 17 0 12 -14 15 -72 13 -40 0 -224 -5 -408 -9z"/>
<path d="M2440 1659 c0 -5 25 -9 55 -9 30 0 55 4 55 10 0 5 -25 9 -55 9 -30
-1 -55 -5 -55 -10z"/>
<path d="M2580 1659 c0 -11 37 -11 65 0 15 6 9 8 -22 9 -24 0 -43 -3 -43 -9z"/>
<path d="M1929 1647 c5 -5 30 -7 57 -5 l49 3 -57 5 c-31 3 -53 1 -49 -3z"/>
<path d="M1523 1643 c43 -2 110 -2 150 0 40 1 5 3 -78 3 -82 0 -115 -2 -72 -3z"/>
<path d="M1075 1629 l-30 -8 33 3 32 3 2 -66 2 -66 3 64 c2 35 0 67 -4 71 -4
3 -21 3 -38 -1z"/>
<path d="M1237 1633 c18 -2 50 -2 70 0 21 2 7 4 -32 4 -38 0 -55 -2 -38 -4z"/>
<path d="M2540 1623 c0 -9 14 -13 41 -13 48 0 44 16 -6 22 -24 3 -35 0 -35 -9z"/>
<path d="M2923 1628 c18 -6 36 -6 55 0 24 9 20 10 -28 10 -48 0 -52 -1 -27
-10z"/>
<path d="M695 1620 c-3 -5 -1 -10 5 -10 6 0 8 -4 5 -10 -3 -5 -19 -10 -36 -10
-16 0 -29 -4 -29 -10 0 -5 18 -10 40 -10 38 0 40 2 40 30 0 29 -13 40 -25 20z"/>
<path d="M2449 1625 c-1 -3 -1 -14 -1 -25 0 -71 2 -80 22 -80 11 0 20 7 20 15
0 8 -8 15 -17 15 -15 0 -16 2 -3 10 8 5 30 10 48 10 17 0 32 5 32 10 0 11 -17
13 -62 10 -16 -1 -28 3 -28 9 0 6 7 11 15 11 8 0 15 5 15 10 0 10 -39 15 -41
5z"/>
<path d="M2693 1623 c37 -2 96 -2 130 0 34 2 4 3 -68 3 -71 0 -99 -1 -62 -3z"/>
<path d="M485 1610 c-16 -7 -11 -9 22 -9 23 -1 45 4 48 9 8 12 -42 12 -70 0z"/>
<path d="M1623 1613 c31 -2 83 -2 115 0 31 2 5 3 -58 3 -63 0 -89 -1 -57 -3z"/>
<path d="M265 1600 c-15 -6 -8 -9 28 -9 26 -1 47 4 47 9 0 12 -47 12 -75 0z"/>
<path d="M354 1602 c5 -9 86 -6 94 3 3 3 -18 5 -47 5 -29 0 -50 -4 -47 -8z"/>
<path d="M150 1591 c0 -8 79 -3 89 5 2 2 -17 4 -42 4 -26 0 -47 -4 -47 -9z"/>
<path d="M1298 1593 l-48 -4 0 -122 c0 -67 -2 -180 -5 -252 -3 -89 -2 -117 4
-90 5 22 10 83 11 135 2 52 6 98 11 101 5 3 13 39 19 80 5 41 13 84 16 97 5
16 2 22 -10 22 -13 0 -16 -12 -16 -70 0 -38 -4 -70 -8 -70 -10 0 -4 142 6 152
6 6 312 11 455 8 17 0 19 -8 15 -90 -1 -50 0 -90 5 -90 4 0 7 -72 7 -159 0
-155 -1 -160 -22 -167 -12 -3 -129 -3 -260 1 l-238 7 -1 -58 c-1 -44 -3 -53
-9 -34 -4 14 -5 -33 -2 -104 4 -95 2 -127 -7 -122 -8 5 -11 -26 -11 -116 l0
-123 48 5 c33 3 39 5 20 8 -16 2 -28 8 -28 13 0 6 -5 7 -11 3 -9 -5 -10 21 -5
97 3 57 9 160 12 229 5 131 9 156 27 179 9 11 14 8 23 -15 l12 -29 7 28 c5 19
12 26 22 23 8 -3 41 -6 73 -6 57 0 59 -1 65 -30 4 -16 11 -30 16 -30 5 0 9 14
9 30 l0 30 110 0 c81 0 110 -3 111 -12 6 -75 4 -420 -3 -424 -4 -3 -6 -10 -3
-15 7 -10 -44 -13 -140 -10 -33 2 -63 8 -67 14 -4 7 -8 8 -8 2 0 -10 -197 -11
-208 -1 -3 4 -6 47 -7 96 -1 49 -4 93 -8 96 -4 4 -7 -40 -7 -99 l0 -106 33 -5
c17 -3 123 -8 234 -11 l202 -6 1 222 c0 180 3 224 15 236 13 12 15 61 15 289
l0 274 -212 -2 c-117 -1 -234 -3 -260 -5z"/>
<path d="M1970 1548 c0 -29 -1 -99 -2 -156 0 -56 2 -105 6 -109 3 -3 6 43 6
103 0 72 4 114 12 122 7 7 8 12 1 12 -5 0 -10 12 -9 28 1 25 5 27 46 30 41 3
199 -13 207 -22 2 -2 6 -111 9 -242 3 -132 8 -241 10 -243 2 -3 3 110 2 250
l-3 254 -65 6 c-36 4 -100 9 -142 13 l-78 7 0 -53z"/>
<path d="M2660 1587 c0 -11 22 -13 94 -13 61 1 87 4 73 9 -12 5 -43 7 -70 5
-26 -2 -47 0 -47 5 0 4 -11 7 -25 7 -14 0 -25 -6 -25 -13z"/>
<path d="M531 1580 c-7 -4 5 -7 28 -7 23 0 43 3 46 6 5 10 -59 11 -74 1z"/>
<path d="M316 1572 c-14 -13 -3 -17 35 -14 22 2 37 7 34 10 -8 8 -62 11 -69 4z"/>
<path d="M435 1570 c-16 -7 -13 -9 18 -9 20 -1 37 4 37 9 0 12 -27 12 -55 0z"/>
<path d="M965 1564 c-38 -8 -81 -12 -94 -9 -19 5 -22 4 -14 -7 6 -7 13 -22 16
-33 4 -19 5 -19 6 1 1 23 5 24 144 40 31 3 57 10 57 15 0 12 -29 10 -115 -7z"/>
<path d="M200 1560 c0 -6 17 -10 40 -8 52 3 52 18 0 18 -22 0 -40 -5 -40 -10z"/>
<path d="M1465 1528 c7 -60 7 -406 0 -418 -3 -6 4 -10 16 -10 18 0 19 2 9 15
-7 8 -9 15 -4 15 5 0 9 11 9 25 0 14 -3 25 -7 25 -20 0 -5 20 15 21 16 1 18 2
5 6 -16 4 -18 21 -18 184 0 154 -2 179 -15 179 -13 0 -15 -9 -10 -42z"/>
<path d="M2063 1493 c4 -38 7 -83 7 -100 0 -18 3 -33 8 -33 9 0 8 91 -2 142
-5 29 -3 39 11 47 16 9 15 10 -6 11 -23 0 -24 -1 -18 -67z"/>
<path d="M400 1543 c-58 -7 -60 -23 -2 -23 40 0 52 4 52 15 0 8 -3 14 -7 13
-5 0 -24 -3 -43 -5z"/>
<path d="M467 1543 c-15 -14 -6 -23 22 -23 34 0 61 9 61 19 0 10 -75 13 -83 4z"/>
<path d="M1060 1530 c0 -11 -5 -20 -10 -20 -6 0 -5 -8 2 -20 10 -15 10 -22 0
-32 -6 -6 -12 -17 -12 -22 0 -6 5 -4 10 4 8 13 10 13 10 -2 0 -9 5 -20 10 -23
6 -4 10 20 10 64 0 41 -4 71 -10 71 -5 0 -10 -9 -10 -20z"/>
<path d="M1554 1457 c0 -57 -5 -101 -12 -109 -9 -12 -5 -13 26 -9 26 4 30 6
15 9 -22 3 -33 22 -13 22 6 0 10 9 10 20 0 11 -4 20 -10 20 -5 0 -10 7 -10 16
0 8 5 12 11 9 7 -5 8 8 4 41 -13 86 -22 78 -21 -19z"/>
<path d="M2543 1535 c0 -11 12 -15 44 -15 41 0 55 11 32 26 -6 3 -15 0 -20 -7
-6 -10 -9 -11 -9 -1 0 6 -10 12 -23 12 -14 0 -24 -6 -24 -15z"/>
<path d="M265 1530 c-15 -6 -8 -9 28 -9 26 -1 47 3 47 7 0 11 -51 12 -75 2z"/>
<path d="M1233 1460 c0 -47 2 -66 4 -42 2 23 2 61 0 85 -2 23 -4 4 -4 -43z"/>
<path d="M2908 1534 c-3 -2 -46 -5 -96 -6 -97 -2 -124 -13 -47 -20 25 -2 45 0
45 4 0 4 10 6 23 4 12 -3 27 -5 32 -5 6 -1 3 -6 -5 -11 -9 -6 -10 -10 -3 -10
6 0 15 5 18 10 6 9 115 15 115 6 0 -3 -4 -16 -10 -30 -7 -21 -6 -26 5 -26 11
0 15 12 15 43 l0 42 -44 2 c-24 1 -46 0 -48 -3z"/>
<path d="M1010 1510 c13 -24 -5 -37 -25 -20 -9 7 -15 8 -15 2 0 -21 26 -32 45
-18 25 18 27 43 4 49 -15 4 -17 2 -9 -13z"/>
<path d="M417 1502 c-38 -7 -14 -23 31 -20 26 2 46 8 45 13 -3 10 -42 13 -76
7z"/>
<path d="M510 1493 c0 -10 12 -13 45 -11 58 4 58 24 0 24 -32 1 -45 -3 -45
-13z"/>
<path d="M631 1501 c-9 -6 -3 -10 22 -13 38 -4 57 -1 57 11 0 10 -63 12 -79 2z"/>
<path d="M2450 1470 c0 -33 3 -40 20 -40 11 0 20 7 20 15 0 8 -7 15 -16 15 -8
0 -12 5 -9 10 3 6 26 10 51 10 54 0 62 24 9 27 -19 2 -35 -2 -35 -7 0 -6 -5
-10 -11 -10 -5 0 -7 5 -4 10 3 6 -1 10 -9 10 -12 0 -16 -10 -16 -40z"/>
<path d="M127 1493 c-14 -13 -6 -23 19 -23 14 0 23 4 20 9 -4 5 0 12 6 14 7 3
1 6 -13 6 -14 1 -29 -2 -32 -6z"/>
<path d="M200 1488 c0 -7 11 -14 24 -14 17 -1 23 2 19 12 -6 17 -43 19 -43 2z"/>
<path d="M864 1400 c0 -52 1 -74 3 -47 2 26 2 68 0 95 -2 26 -3 4 -3 -48z"/>
<path d="M684 1465 c-3 -8 -3 -19 1 -25 4 -6 -7 -10 -29 -10 -26 0 -36 -4 -36
-16 0 -11 7 -14 31 -10 20 3 29 1 26 -7 -2 -7 0 -20 5 -29 7 -15 4 -18 -14
-19 -13 -1 -29 -1 -35 0 -7 1 -13 -5 -13 -14 0 -9 6 -15 13 -14 24 3 62 -3 50
-8 -18 -7 -16 -33 2 -33 12 0 15 15 16 68 1 37 3 82 5 100 4 32 -12 45 -22 17z"/>
<path d="M1323 1443 c0 -24 4 -43 8 -43 11 0 11 38 0 65 -6 15 -8 8 -8 -22z"/>
<path d="M1783 1405 c0 -44 2 -61 4 -37 2 23 2 59 0 80 -2 20 -4 1 -4 -43z"/>
<path d="M2814 1468 c-8 -12 15 -29 34 -25 20 3 16 20 -7 29 -12 4 -23 3 -27
-4z"/>
<path d="M2890 1473 c0 -15 15 -28 43 -40 24 -11 27 -11 27 7 0 20 -27 40 -54
40 -9 0 -16 -3 -16 -7z"/>
<path d="M426 1463 c-4 -4 -22 -6 -41 -5 -19 2 -35 -2 -35 -8 0 -5 20 -10 45
-10 33 0 45 4 45 15 0 17 -3 18 -14 8z"/>
<path d="M466 1455 c-4 -12 4 -15 38 -15 31 0 43 4 43 15 0 18 -33 20 -40 3
-4 -10 -6 -10 -6 0 -1 17 -28 15 -35 -3z"/>
<path d="M2546 1461 c-16 -3 -31 -12 -34 -18 -4 -15 14 -17 23 -3 3 5 19 7 35
3 23 -4 30 -2 30 11 0 17 -6 18 -54 7z"/>
<path d="M147 1453 c-21 -21 11 -30 61 -17 27 8 29 24 2 24 -11 0 -20 -4 -20
-10 0 -11 -22 -9 -31 3 -3 4 -8 4 -12 0z"/>
<path d="M412 1413 c-15 -10 -10 -12 31 -13 31 0 47 4 47 13 0 16 -57 17 -78
0z"/>
<path d="M547 1423 c-14 -13 -6 -23 17 -23 13 0 26 7 30 15 4 11 -1 15 -18 15
-12 0 -26 -3 -29 -7z"/>
<path d="M2274 1255 c0 -99 2 -138 3 -87 2 51 2 132 0 180 -1 48 -3 6 -3 -93z"/>
<path d="M2883 1410 c3 -13 0 -20 -10 -20 -8 0 -12 -4 -8 -10 3 -5 12 -7 20
-3 8 3 15 1 15 -5 0 -16 -27 -33 -43 -26 -14 5 -14 2 -4 -20 12 -26 27 -35 27
-16 0 6 6 10 13 10 8 0 14 6 15 13 0 6 2 19 3 27 5 34 -2 58 -17 64 -13 5 -15
2 -11 -14z"/>
<path d="M110 1405 c0 -18 12 -19 28 -3 9 9 12 9 12 -1 0 -7 5 -9 10 -6 20 12
9 25 -20 25 -20 0 -30 -5 -30 -15z"/>
<path d="M290 1410 c0 -5 20 -10 45 -10 25 0 45 5 45 10 0 6 -20 10 -45 10
-25 0 -45 -4 -45 -10z"/>
<path d="M2450 1406 c0 -13 12 -16 56 -16 73 0 70 24 -4 28 -42 2 -52 0 -52
-12z"/>
<path d="M2580 1405 c0 -8 8 -15 18 -15 10 0 19 7 19 15 0 8 -9 15 -19 15 -10
0 -18 -7 -18 -15z"/>
<path d="M2723 1360 c0 -36 2 -50 4 -32 2 17 2 47 0 65 -2 17 -4 3 -4 -33z"/>
<path d="M1103 1335 c0 -44 2 -61 4 -37 2 23 2 59 0 80 -2 20 -4 1 -4 -43z"/>
<path d="M1046 1360 c4 -37 -8 -55 -19 -27 -3 6 -6 2 -6 -10 -1 -15 3 -21 13
-17 18 7 32 -14 18 -28 -6 -6 -8 -17 -5 -24 3 -10 0 -12 -10 -8 -9 3 -13 13
-9 26 4 18 3 19 -17 8 -13 -6 -34 -9 -47 -6 -16 4 -30 1 -41 -9 -8 -9 -22 -14
-30 -11 -10 4 -11 1 -3 -14 11 -21 39 -17 53 7 7 12 11 12 25 1 9 -8 13 -8 9
-1 -5 8 -1 8 18 0 14 -7 25 -15 25 -19 0 -5 6 -8 13 -8 8 0 14 -12 14 -30 0
-34 -9 -38 -35 -12 -23 23 -43 6 -40 -32 3 -33 21 -40 39 -15 18 26 29 24 29
-6 0 -14 4 -25 9 -25 10 0 21 108 21 218 0 65 -3 82 -14 82 -11 0 -14 -10 -10
-40z"/>
<path d="M1636 1384 c-3 -8 1 -14 9 -14 8 0 15 -9 15 -20 0 -11 4 -20 8 -20 5
0 7 13 4 29 -4 32 -27 48 -36 25z"/>
<path d="M476 1373 c-4 -9 4 -13 29 -13 24 0 35 5 35 14 0 19 -57 18 -64 -1z"/>
<path d="M590 1376 c0 -10 10 -14 30 -14 18 1 30 6 30 15 0 8 -12 13 -30 13
-19 0 -30 -5 -30 -14z"/>
<path d="M1321 1343 c-1 -27 -4 -63 -5 -81 -2 -18 1 -29 5 -25 13 13 24 153
12 153 -5 0 -11 -21 -12 -47z"/>
<path d="M2988 1263 c3 -137 -1 -164 -20 -145 -15 15 -45 15 -54 1 -5 -9 1
-10 22 -5 16 4 26 4 22 0 -4 -4 0 -12 9 -19 13 -10 11 -11 -18 -9 -34 3 -34 3
-4 -5 17 -4 35 -4 40 1 12 11 20 308 8 308 -4 0 -7 -57 -5 -127z"/>
<path d="M30 1364 c0 -11 5 -14 16 -10 9 3 27 6 40 6 13 0 24 5 24 10 0 6 -18
10 -40 10 -30 0 -40 -4 -40 -16z"/>
<path d="M265 1370 c-4 -6 7 -10 24 -10 17 0 31 5 31 10 0 6 -11 10 -24 10
-14 0 -28 -4 -31 -10z"/>
<path d="M1712 1355 c-10 -21 -9 -25 3 -25 8 0 15 -4 15 -9 0 -17 -21 -23 -38
-11 -9 7 -5 1 10 -13 24 -22 25 -26 10 -30 -15 -4 -15 -5 1 -6 14 -1 17 -6 12
-21 -4 -11 -2 -20 4 -20 6 0 10 32 9 80 -1 84 -7 97 -26 55z"/>
<path d="M2450 1360 c0 -16 5 -21 23 -18 12 2 22 10 22 18 0 8 -10 16 -22 18
-18 3 -23 -2 -23 -18z"/>
<path d="M2533 1366 c6 -18 83 -20 90 -2 5 12 -4 15 -44 14 -30 -1 -48 -6 -46
-12z"/>
<path d="M890 1323 c0 -21 5 -45 11 -53 8 -12 9 -10 4 7 -5 19 -3 22 12 16 17
-7 17 -6 0 12 -10 10 -16 26 -14 36 3 11 1 19 -4 19 -5 0 -9 -17 -9 -37z"/>
<path d="M304 1336 c-10 -10 -5 -13 22 -14 24 -1 34 3 34 13 0 19 -41 19 -56
1z"/>
<path d="M390 1334 c0 -9 12 -14 35 -14 22 0 35 5 35 13 0 8 -13 13 -35 14
-24 1 -35 -3 -35 -13z"/>
<path d="M515 1340 c-16 -6 -17 -9 -5 -14 25 -9 83 -2 88 12 4 14 -50 16 -83
2z"/>
<path d="M110 1330 c0 -5 14 -10 30 -10 17 0 30 5 30 10 0 6 -13 10 -30 10
-16 0 -30 -4 -30 -10z"/>
<path d="M195 1330 c-4 -6 10 -10 34 -10 23 0 41 5 41 10 0 6 -15 10 -34 10
-19 0 -38 -4 -41 -10z"/>
<path d="M2450 1315 c0 -11 12 -15 45 -15 33 0 45 4 45 15 0 11 -12 15 -45 15
-33 0 -45 -4 -45 -15z"/>
<path d="M347 1303 c-4 -3 -7 -11 -7 -17 0 -6 5 -4 10 4 6 10 10 11 10 3 0 -8
14 -13 35 -13 24 0 35 5 35 15 0 18 -21 20 -38 3 -9 -9 -12 -9 -12 0 0 13 -22
16 -33 5z"/>
<path d="M476 1295 c8 -19 64 -21 64 -2 0 8 -14 14 -35 15 -27 2 -33 -1 -29
-13z"/>
<path d="M560 1295 c0 -10 11 -15 35 -15 19 0 35 5 35 11 0 5 5 7 10 4 6 -3
10 -1 10 4 0 6 -20 11 -45 11 -33 0 -45 -4 -45 -15z"/>
<path d="M854 1205 c0 -49 1 -71 3 -48 2 23 2 64 0 90 -2 26 -3 8 -3 -42z"/>
<path d="M2450 1270 c0 -16 5 -21 23 -18 12 2 22 10 22 18 0 8 -10 16 -22 18
-18 3 -23 -2 -23 -18z"/>
<path d="M2532 1274 c-11 -12 -8 -14 17 -14 16 0 32 6 34 13 4 9 8 9 15 -2 6
-8 12 -9 16 -3 3 6 3 13 -2 16 -16 10 -68 3 -80 -10z"/>
<path d="M2870 1265 c0 -12 -5 -26 -10 -31 -7 -7 2 -10 25 -11 20 -1 35 4 35
10 0 7 4 6 10 -3 5 -8 12 -12 15 -8 8 8 -24 58 -36 58 -5 0 -7 -12 -3 -27 l6
-28 -21 30 c-18 26 -21 27 -21 10z"/>
<path d="M280 1253 c0 -7 9 -13 20 -13 11 0 20 5 20 11 0 5 5 7 10 4 6 -3 10
-2 10 4 0 5 -13 9 -30 9 -18 -1 -30 -6 -30 -15z"/>
<path d="M390 1255 c0 -8 17 -12 45 -12 25 0 45 4 45 9 0 5 -4 6 -10 3 -5 -3
-10 -2 -10 4 0 6 -16 10 -35 9 -20 -1 -35 -6 -35 -13z"/>
<path d="M523 1255 c0 -10 11 -15 34 -15 23 0 33 5 33 15 0 10 -10 15 -33 15
-23 0 -34 -5 -34 -15z"/>
<path d="M610 1255 c0 -11 11 -15 40 -15 29 0 40 4 40 15 0 11 -11 15 -40 15
-29 0 -40 -4 -40 -15z"/>
<path d="M0 1250 c0 -5 13 -10 30 -10 17 0 30 5 30 10 0 6 -13 10 -30 10 -17
0 -30 -4 -30 -10z"/>
<path d="M70 1249 c0 -5 20 -9 45 -9 25 0 45 4 45 8 0 5 -20 9 -45 9 -25 0
-45 -3 -45 -8z"/>
<path d="M180 1252 c0 -4 14 -9 30 -10 17 -1 30 2 30 8 0 5 -13 10 -30 10 -16
0 -30 -4 -30 -8z"/>
<path d="M1814 970 c0 -157 2 -221 3 -142 2 78 2 206 0 285 -1 78 -3 14 -3
-143z"/>
<path d="M1224 1130 c0 -63 1 -89 3 -57 2 31 2 83 0 115 -2 31 -3 5 -3 -58z"/>
<path d="M2453 1225 c0 -8 18 -13 54 -14 40 -1 53 3 53 14 0 11 -13 14 -53 14
-36 -1 -54 -5 -54 -14z"/>
<path d="M2580 1223 c0 -15 2 -16 10 -3 6 10 10 11 10 3 0 -7 7 -13 16 -13 8
0 13 4 10 9 -4 5 0 12 6 14 7 3 -2 6 -19 6 -25 1 -33 -3 -33 -16z"/>
<path d="M133 1223 c-7 -3 -13 -9 -13 -14 0 -13 37 -11 46 2 4 8 9 7 15 -2 6
-11 11 -11 21 -1 6 6 8 13 3 14 -27 4 -61 4 -72 1z"/>
<path d="M226 1215 c-4 -12 4 -15 39 -15 24 0 47 5 51 12 4 7 3 8 -4 4 -7 -4
-12 -2 -12 3 0 17 -67 13 -74 -4z"/>
<path d="M337 1223 c-16 -16 -4 -23 38 -23 33 0 45 4 45 15 0 11 -11 15 -38
15 -21 0 -42 -3 -45 -7z"/>
<path d="M443 1217 c6 -19 84 -21 84 -3 0 10 -12 14 -44 14 -29 0 -43 -4 -40
-11z"/>
<path d="M550 1215 c0 -12 9 -15 39 -13 48 4 44 28 -5 28 -24 0 -34 -5 -34
-15z"/>
<path d="M20 1210 c0 -5 18 -10 40 -10 22 0 40 5 40 10 0 6 -18 10 -40 10 -22
0 -40 -4 -40 -10z"/>
<path d="M835 1116 c2 -54 -1 -126 -6 -160 -4 -33 -10 -138 -11 -233 l-3 -172
27 2 c33 2 35 8 9 27 -19 13 -20 23 -14 204 3 105 9 193 13 196 3 3 11 20 16
39 12 44 34 53 35 14 0 -27 1 -27 9 -5 8 18 17 22 49 22 22 0 51 -4 64 -9 23
-9 25 -14 23 -73 -1 -35 -5 -69 -10 -76 -4 -6 -3 -12 1 -12 5 0 8 -12 7 -27
-1 -16 -3 -38 -3 -50 -1 -12 -9 -24 -18 -26 -17 -4 -17 -5 0 -6 9 0 17 -5 17
-11 0 -5 -8 -14 -17 -19 -16 -9 -14 -10 9 -11 l27 0 3 173 3 172 -114 -3
c-105 -4 -114 -2 -102 12 8 9 11 19 7 23 -3 3 -7 0 -8 -8 -1 -8 -5 15 -9 51
-5 54 -6 48 -4 -34z"/>
<path d="M898 1202 c-15 -3 -18 -14 -18 -58 l0 -54 35 3 c19 1 35 5 35 10 0 4
-5 7 -11 7 -5 0 -7 5 -4 10 3 6 1 10 -5 10 -6 0 -9 3 -6 8 2 4 1 21 -2 37 -5
22 -12 30 -24 27z"/>
<path d="M1726 1180 c5 -67 2 -69 -110 -73 l-101 -3 113 -2 112 -2 0 55 c0 30
-4 55 -8 55 -5 0 -7 -14 -6 -30z"/>
<path d="M2878 1198 c-14 -9 -1 -12 39 -9 11 1 24 -3 28 -8 3 -6 -1 -11 -9
-11 -9 0 -16 -7 -16 -15 0 -14 3 -13 25 1 29 19 33 44 8 45 -10 0 -28 2 -40 3
-12 1 -28 -1 -35 -6z"/>
<path d="M1961 1143 c1 -48 3 -53 9 -28 l8 30 2 -30 c1 -26 3 -27 9 -10 9 22
3 45 -13 58 -8 6 -7 10 2 14 13 5 7 23 -9 23 -5 0 -8 -26 -8 -57z"/>
<path d="M2457 1193 c-14 -13 -6 -33 12 -33 25 0 38 20 20 31 -17 11 -24 11
-32 2z"/>
<path d="M2533 1193 c-7 -2 -13 -11 -13 -19 0 -10 13 -14 45 -14 32 0 45 4 45
14 0 20 -27 27 -40 10 -16 -18 -31 -18 -24 1 6 16 6 16 -13 8z"/>
<path d="M0 1176 c0 -10 9 -16 25 -16 14 0 25 5 25 10 0 6 -4 10 -9 10 -5 0
-16 3 -25 6 -11 4 -16 1 -16 -10z"/>
<path d="M76 1183 c-15 -15 -3 -23 34 -23 29 0 40 4 40 15 0 8 -4 15 -10 15
-5 0 -10 -4 -10 -10 0 -5 -5 -10 -11 -10 -5 0 -8 4 -5 8 5 9 -29 13 -38 5z"/>
<path d="M170 1174 c0 -10 14 -14 45 -14 30 0 45 4 45 13 0 8 -15 13 -45 13
-32 1 -45 -3 -45 -12z"/>
<path d="M296 1174 c-4 -11 0 -15 16 -12 12 2 23 9 26 16 6 18 -35 15 -42 -4z"/>
<path d="M380 1173 c0 -8 12 -13 35 -13 24 0 35 5 35 15 0 10 -10 14 -35 13
-22 -1 -35 -6 -35 -15z"/>
<path d="M490 1175 c0 -18 41 -20 58 -3 9 9 12 9 12 0 0 -7 4 -12 8 -12 5 0 9
7 9 15 0 11 -12 15 -44 15 -32 0 -43 -4 -43 -15z"/>
<path d="M600 1175 c0 -11 12 -15 45 -15 33 0 45 4 45 15 0 11 -12 15 -45 15
-33 0 -45 -4 -45 -15z"/>
<path d="M2123 1156 c3 -8 1 -17 -6 -20 -9 -5 -9 -7 1 -12 19 -9 4 -24 -24
-24 -25 0 -33 15 -12 22 8 3 6 6 -4 10 -11 5 -17 0 -21 -18 -4 -22 -1 -24 39
-24 l44 0 0 40 c0 23 -5 40 -11 40 -6 0 -9 -6 -6 -14z"/>
<path d="M20 1137 c0 -8 15 -13 40 -14 29 -2 40 2 40 13 0 10 -12 14 -40 14
-26 0 -40 -5 -40 -13z"/>
<path d="M120 1135 c0 -11 11 -15 40 -15 29 0 40 4 40 15 0 11 -11 15 -40 15
-29 0 -40 -4 -40 -15z"/>
<path d="M220 1135 c0 -11 12 -15 45 -15 33 0 45 4 45 15 0 11 -12 15 -45 15
-33 0 -45 -4 -45 -15z"/>
<path d="M333 1143 c-29 -10 -10 -23 34 -23 33 0 44 3 36 11 -12 12 -51 18
-70 12z"/>
<path d="M443 1143 c-22 -8 -14 -23 11 -23 13 0 27 7 30 16 5 14 4 15 -8 5 -8
-7 -16 -8 -18 -3 -1 5 -9 7 -15 5z"/>
<path d="M570 1141 c0 -5 -8 -12 -17 -14 -10 -3 -3 -5 15 -6 22 -1 32 4 32 14
0 8 -7 15 -15 15 -8 0 -15 -4 -15 -9z"/>
<path d="M2450 1129 c0 -16 4 -19 23 -13 12 3 28 11 35 16 8 7 12 7 12 -1 0
-6 5 -11 10 -11 6 0 10 7 10 15 0 11 -12 15 -45 15 -39 0 -45 -3 -45 -21z"/>
<path d="M2592 1135 c-11 -13 -9 -15 13 -15 14 0 24 4 21 9 -4 5 0 12 6 14 7
3 4 6 -7 6 -11 0 -26 -6 -33 -14z"/>
<path d="M1094 1040 c0 -58 1 -81 3 -52 2 28 2 76 0 105 -2 28 -3 5 -3 -53z"/>
<path d="M97 1103 c-14 -13 -6 -23 18 -23 16 0 25 6 25 15 0 15 -31 21 -43 8z"/>
<path d="M160 1094 c0 -8 9 -14 20 -14 11 0 20 6 20 13 0 7 -9 13 -20 14 -11
1 -20 -4 -20 -13z"/>
<path d="M270 1095 c0 -11 12 -15 46 -15 59 0 55 23 -4 27 -32 2 -42 -1 -42
-12z"/>
<path d="M386 1101 c-3 -5 1 -12 10 -15 24 -9 64 -7 64 3 0 5 -11 8 -25 6 -14
-1 -25 2 -25 6 0 12 -17 11 -24 0z"/>
<path d="M662 1085 c3 -14 1 -25 -3 -25 -5 0 -9 -7 -9 -15 0 -8 7 -15 15 -15
8 0 15 8 15 18 0 9 3 27 6 40 5 16 2 22 -11 22 -13 0 -16 -6 -13 -25z"/>
<path d="M480 1090 c0 -5 23 -10 50 -10 28 0 50 5 50 10 0 6 -22 10 -50 10
-27 0 -50 -4 -50 -10z"/>
<path d="M2459 1091 c11 -7 11 -9 0 -14 -8 -3 -2 -6 14 -6 18 -1 27 4 27 14 0
10 -10 15 -27 15 -20 0 -24 -3 -14 -9z"/>
<path d="M2520 1085 c0 -8 7 -15 16 -15 8 0 12 5 9 10 -3 6 -1 10 4 10 6 0 11
-4 11 -10 0 -5 9 -10 20 -10 11 0 20 6 20 13 0 9 3 8 9 -2 5 -7 14 -10 21 -6
20 13 -10 25 -62 25 -36 0 -48 -4 -48 -15z"/>
<path d="M1960 993 c0 -88 1 -89 50 -73 l25 8 -26 1 c-24 1 -26 4 -25 46 0 25
4 45 8 45 4 0 7 3 7 8 -4 27 5 29 104 24 56 -3 112 -9 125 -13 l23 -9 -1 -227
c-1 -126 -4 -238 -7 -250 -5 -22 -8 -23 -144 -23 l-139 0 0 30 0 30 125 0 125
0 -1 28 c0 26 -1 26 -9 5 -9 -22 -13 -22 -115 -19 -99 4 -138 12 -107 23 6 3
9 10 5 16 -12 19 -12 36 -2 43 6 3 5 11 -2 20 -6 8 -7 14 -2 14 13 0 11 43 -2
53 -6 4 -5 10 4 16 9 6 10 11 2 15 -6 4 -8 13 -4 19 14 22 13 48 -2 63 -13 14
-15 1 -15 -118 0 -73 -3 -164 -6 -203 -3 -42 -2 -65 3 -57 6 7 28 12 59 10 27
-1 90 0 140 2 50 1 96 0 102 -4 7 -4 9 9 7 36 -1 24 -3 148 -4 276 l-1 232
-72 1 c-40 0 -108 4 -150 7 l-78 8 0 -83z"/>
<path d="M10 1055 c0 -11 11 -15 40 -15 29 0 40 4 40 15 0 11 -11 15 -40 15
-29 0 -40 -4 -40 -15z"/>
<path d="M110 1055 c0 -11 12 -15 45 -15 35 0 45 4 45 16 0 14 -3 14 -15 4
-10 -9 -15 -9 -15 -1 0 6 -13 11 -30 11 -20 0 -30 -5 -30 -15z"/>
<path d="M210 1056 c0 -12 11 -16 45 -16 25 0 45 5 45 10 0 6 -3 10 -7 10 -5
1 -25 3 -45 6 -30 5 -38 2 -38 -10z"/>
<path d="M330 1055 c0 -13 8 -16 38 -13 20 2 37 8 37 13 0 6 -17 11 -37 13
-30 3 -38 0 -38 -13z"/>
<path d="M430 1049 c0 -5 20 -9 45 -9 25 0 45 4 45 9 0 5 -20 9 -45 9 -25 0
-45 -4 -45 -9z"/>
<path d="M540 1050 c0 -5 6 -10 14 -10 8 0 21 -3 30 -6 11 -4 16 -1 16 10 0
11 -9 16 -30 16 -16 0 -30 -4 -30 -10z"/>
<path d="M2450 1053 c1 -19 18 -33 33 -28 17 7 32 35 18 35 -5 0 -12 -6 -14
-12 -4 -10 -6 -10 -6 0 -1 13 -31 18 -31 5z"/>
<path d="M2514 1045 c-4 -9 -4 -18 -1 -22 11 -10 59 7 54 20 -6 19 -46 21 -53
2z"/>
<path d="M0 1015 c0 -8 9 -15 20 -15 11 0 20 7 20 15 0 8 -9 15 -20 15 -11 0
-20 -7 -20 -15z"/>
<path d="M70 1019 c0 -13 9 -17 35 -17 23 0 35 5 35 14 0 17 -36 19 -43 2 -4
-10 -8 -9 -16 2 -9 13 -11 13 -11 -1z"/>
<path d="M160 1015 c0 -18 16 -20 23 -2 4 10 6 10 6 0 1 -7 8 -13 17 -13 14 0
14 2 0 15 -8 8 -22 15 -30 15 -9 0 -16 -7 -16 -15z"/>
<path d="M265 1022 c-13 -13 -2 -20 36 -20 26 -1 39 3 36 11 -4 12 -62 19 -72
9z"/>
<path d="M370 1008 c0 -5 20 -8 45 -7 25 2 45 6 45 11 0 4 -20 7 -45 6 -25 0
-45 -5 -45 -10z"/>
<path d="M480 1010 c0 -6 5 -8 10 -5 6 4 17 2 23 -4 13 -10 57 -4 57 8 0 4
-20 8 -45 10 -28 1 -45 -2 -45 -9z"/>
<path d="M590 1005 c0 -18 77 -18 84 1 5 12 -2 14 -39 13 -26 -2 -45 -8 -45
-14z"/>
<path d="M2456 995 c4 -8 15 -15 25 -15 10 0 19 7 19 15 0 9 -9 15 -25 15 -18
0 -23 -4 -19 -15z"/>
<path d="M2530 995 c0 -18 31 -20 48 -3 9 9 12 9 12 0 0 -7 10 -12 23 -11 12
0 16 3 9 6 -6 2 -10 9 -6 14 3 5 -15 9 -40 9 -34 0 -46 -4 -46 -15z"/>
<path d="M19 981 c11 -7 11 -9 0 -14 -8 -3 1 -6 19 -6 23 -1 31 3 26 11 -5 8
-2 9 9 5 10 -3 17 -2 17 3 0 6 -19 10 -42 10 -28 0 -38 -3 -29 -9z"/>
<path d="M107 975 c-5 -12 2 -15 37 -15 29 0 43 4 43 13 0 20 -73 22 -80 2z"/>
<path d="M210 975 c0 -11 12 -15 45 -15 25 0 45 4 45 9 0 14 -29 21 -36 10 -4
-7 -10 -7 -17 0 -16 16 -37 13 -37 -4z"/>
<path d="M896 888 c-12 -218 -12 -257 2 -263 8 -3 45 -5 83 -5 l69 0 0 51 c0
32 -4 48 -10 44 -6 -4 -8 -15 -5 -26 4 -12 2 -19 -7 -19 -10 0 -10 -2 1 -9 7
-5 10 -14 7 -20 -9 -14 -103 -15 -111 -1 -4 6 -11 8 -17 4 -6 -4 -7 52 -3 170
8 189 1 243 -9 74z"/>
<path d="M315 970 c-4 -6 14 -9 45 -9 27 1 50 6 50 10 0 12 -87 11 -95 -1z"/>
<path d="M450 965 c0 -8 9 -15 19 -15 10 0 21 7 25 15 4 11 -1 15 -19 15 -16
0 -25 -6 -25 -15z"/>
<path d="M533 965 c0 -11 12 -15 49 -15 36 0 48 4 48 15 0 11 -12 15 -48 15
-37 0 -49 -4 -49 -15z"/>
<path d="M2474 954 c3 -7 0 -15 -7 -18 -7 -2 11 -5 40 -5 28 -1 55 4 58 10 9
14 7 16 -48 22 -37 4 -47 2 -43 -9z"/>
<path d="M50 935 c0 -11 12 -15 45 -15 33 0 45 4 45 15 0 11 -12 15 -45 15
-33 0 -45 -4 -45 -15z"/>
<path d="M150 936 c0 -10 13 -14 45 -13 45 0 65 16 23 18 -13 0 -33 2 -45 5
-15 2 -23 -1 -23 -10z"/>
<path d="M260 930 c0 -5 16 -10 35 -10 19 0 35 5 35 10 0 6 -16 10 -35 10 -19
0 -35 -4 -35 -10z"/>
<path d="M370 931 c0 -13 53 -21 66 -10 6 5 14 6 17 2 4 -3 7 -1 7 5 0 7 -17
12 -45 12 -25 0 -45 -4 -45 -9z"/>
<path d="M500 925 c0 -10 11 -15 35 -15 24 0 35 5 35 15 0 10 -11 15 -35 15
-24 0 -35 -5 -35 -15z"/>
<path d="M590 924 c0 -7 18 -13 45 -16 38 -3 45 0 45 15 0 14 -8 17 -45 15
-28 -1 -45 -6 -45 -14z"/>
<path d="M2460 899 c0 -14 5 -19 17 -17 26 5 29 38 4 38 -15 0 -21 -6 -21 -21z"/>
<path d="M2520 904 c0 -8 5 -14 11 -14 5 0 7 5 4 10 -3 6 -1 10 4 10 6 0 11
-4 11 -10 0 -5 15 -9 34 -7 51 3 33 26 -20 25 -30 0 -44 -5 -44 -14z"/>
<path d="M100 899 c0 -5 5 -7 10 -4 6 3 10 1 10 -4 0 -6 16 -11 35 -11 36 0
47 13 19 24 -26 10 -74 7 -74 -5z"/>
<path d="M420 885 c0 -11 11 -15 43 -15 32 0 44 4 44 15 0 11 -12 15 -44 15
-32 0 -43 -4 -43 -15z"/>
<path d="M569 891 c11 -7 10 -10 -5 -14 -10 -2 -3 -5 17 -6 24 -1 39 4 43 14
4 12 -3 15 -32 15 -25 0 -33 -3 -23 -9z"/>
<path d="M645 890 c-3 -4 -2 -15 1 -23 3 -9 0 -15 -8 -14 -31 1 -48 -4 -48
-13 0 -5 9 -10 19 -10 38 0 51 -10 40 -31 -7 -15 -6 -19 6 -19 10 0 15 10 16
28 0 15 3 39 5 53 4 26 -19 48 -31 29z"/>
<path d="M2199 893 c-6 -57 -6 -73 2 -73 5 0 9 18 9 40 0 22 -2 40 -5 40 -3 0
-5 -3 -6 -7z"/>
<path d="M50 855 c0 -9 10 -15 26 -15 14 0 32 7 40 15 14 13 11 15 -25 15 -30
0 -41 -4 -41 -15z"/>
<path d="M157 864 c-16 -17 -5 -25 31 -22 20 2 37 8 37 13 0 12 -58 19 -68 9z"/>
<path d="M254 861 c-2 -2 -4 -8 -4 -13 0 -11 87 -10 94 1 6 9 -81 20 -90 12z"/>
<path d="M2462 858 c3 -8 26 -14 56 -16 42 -2 52 0 52 12 0 13 -12 16 -56 16
-40 0 -55 -4 -52 -12z"/>
<path d="M2586 855 c4 -8 15 -15 25 -15 10 0 19 7 19 15 0 9 -9 15 -25 15 -18
0 -23 -4 -19 -15z"/>
<path d="M360 844 c0 -14 3 -14 15 -4 8 7 15 8 15 3 0 -5 16 -10 35 -11 26 -1
33 2 28 13 -8 22 -93 21 -93 -1z"/>
<path d="M470 844 c0 -10 13 -14 50 -14 53 0 68 15 23 23 -51 9 -73 6 -73 -9z"/>
<path d="M0 818 c0 -6 3 -8 7 -5 3 4 12 2 19 -4 15 -12 37 -3 29 12 -9 13 -55
11 -55 -3z"/>
<path d="M100 815 c0 -11 12 -15 45 -15 35 0 43 3 39 15 -4 10 -20 15 -45 15
-28 0 -39 -4 -39 -15z"/>
<path d="M2462 813 c5 -26 38 -29 38 -4 0 15 -6 21 -21 21 -14 0 -19 -5 -17
-17z"/>
<path d="M2530 815 c0 -27 80 -34 86 -7 1 7 0 8 -3 2 -3 -6 -13 -4 -26 5 -27
19 -57 19 -57 0z"/>
<path d="M326 805 c4 -9 19 -15 40 -15 24 0 34 5 34 15 0 11 -11 15 -40 15
-31 0 -38 -3 -34 -15z"/>
<path d="M420 804 c0 -14 3 -14 15 -4 10 9 15 9 15 1 0 -6 9 -11 20 -11 11 0
20 7 20 15 0 10 -11 15 -35 15 -26 0 -35 -4 -35 -16z"/>
<path d="M530 804 c0 -13 8 -15 35 -12 19 2 35 0 35 -5 0 -4 5 -5 10 -2 18 11
-1 27 -25 21 -13 -3 -27 -2 -30 4 -10 16 -25 12 -25 -6z"/>
<path d="M1759 703 c-2 -161 -6 -178 -46 -178 -17 0 -29 -3 -26 -7 2 -5 22 -8
44 -8 l39 0 0 155 c0 85 -2 155 -5 155 -3 0 -6 -53 -6 -117z"/>
<path d="M2198 754 c-1 -31 0 -58 5 -61 4 -2 7 23 7 56 0 76 -7 79 -12 5z"/>
<path d="M1083 730 c0 -41 2 -58 4 -37 2 20 2 54 0 75 -2 20 -4 3 -4 -38z"/>
<path d="M50 775 c0 -11 11 -15 40 -15 29 0 40 4 40 15 0 11 -11 15 -40 15
-29 0 -40 -4 -40 -15z"/>
<path d="M150 773 c0 -9 16 -13 45 -13 25 0 45 4 45 9 0 5 -20 11 -45 13 -31
2 -45 -1 -45 -9z"/>
<path d="M250 771 c0 -12 37 -24 50 -16 20 12 10 25 -20 25 -16 0 -30 -4 -30
-9z"/>
<path d="M360 766 c0 -9 9 -14 20 -13 11 1 20 7 20 14 0 7 -9 13 -20 13 -11 0
-20 -6 -20 -14z"/>
<path d="M410 765 c0 -9 9 -15 25 -15 16 0 25 6 25 15 0 9 -9 15 -25 15 -16 0
-25 -6 -25 -15z"/>
<path d="M2460 761 c0 -13 6 -18 18 -16 9 2 25 4 35 4 9 1 17 8 17 16 0 10
-11 15 -35 15 -28 0 -35 -4 -35 -19z"/>
<path d="M2590 765 c0 -8 9 -15 19 -15 10 0 21 7 25 15 4 11 -1 15 -19 15 -16
0 -25 -6 -25 -15z"/>
<path d="M470 760 c0 -5 16 -10 35 -10 19 0 35 5 35 10 0 6 -16 10 -35 10 -19
0 -35 -4 -35 -10z"/>
<path d="M626 755 c4 -8 15 -15 25 -15 10 0 19 7 19 15 0 9 -9 15 -25 15 -18
0 -23 -4 -19 -15z"/>
<path d="M13 737 c5 -16 67 -19 67 -3 0 8 -15 13 -36 14 -24 1 -34 -3 -31 -11z"/>
<path d="M97 743 c-16 -15 -4 -21 38 -21 45 1 58 11 29 22 -21 8 -59 8 -67 -1z"/>
<path d="M200 729 c0 -7 10 -9 25 -7 14 3 28 1 31 -3 9 -15 34 -10 34 6 0 11
-12 15 -45 15 -26 0 -45 -5 -45 -11z"/>
<path d="M319 731 c11 -7 11 -9 0 -14 -8 -3 8 -6 34 -6 63 -1 59 23 -4 27 -29
2 -39 -1 -30 -7z"/>
<path d="M530 718 c0 -15 9 -18 50 -18 38 0 50 4 50 15 0 11 -10 14 -40 13
-22 -1 -40 -6 -40 -12 0 -6 -5 -4 -10 4 -8 13 -10 12 -10 -2z"/>
<path d="M2460 715 c0 -8 9 -15 20 -15 11 0 20 7 20 15 0 8 -9 15 -20 15 -11
0 -20 -7 -20 -15z"/>
<path d="M2520 715 c0 -12 13 -15 55 -15 44 0 53 3 49 15 -7 18 -50 20 -57 3
-4 -10 -6 -10 -6 0 -1 17 -41 15 -41 -3z"/>
<path d="M40 695 c0 -9 9 -15 25 -15 16 0 25 6 25 15 0 9 -9 15 -25 15 -16 0
-25 -6 -25 -15z"/>
<path d="M140 690 c0 -5 20 -10 45 -10 25 0 45 4 45 8 0 5 -20 10 -45 10 -25
1 -45 -2 -45 -8z"/>
<path d="M250 685 c0 -8 17 -13 45 -13 33 -1 45 3 45 13 0 11 -11 15 -45 13
-28 -1 -45 -6 -45 -13z"/>
<path d="M360 684 c0 -8 11 -14 25 -14 14 0 25 4 25 9 0 5 -11 11 -25 13 -17
4 -25 1 -25 -8z"/>
<path d="M2923 694 c11 -11 77 -14 77 -4 0 6 -19 10 -42 10 -23 0 -38 -3 -35
-6z"/>
<path d="M470 678 c0 -8 18 -14 50 -16 42 -3 49 0 44 13 -8 19 -94 22 -94 3z"/>
<path d="M580 678 c0 -13 8 -18 29 -18 16 0 37 -3 46 -6 13 -5 16 -2 13 12 -2
13 -13 19 -36 20 -18 1 -32 -3 -32 -10 0 -6 -5 -4 -10 4 -8 13 -10 12 -10 -2z"/>
<path d="M2467 683 c-17 -17 -5 -33 24 -33 24 0 30 3 25 16 -3 9 -6 18 -6 20
0 7 -36 5 -43 -3z"/>
<path d="M97 656 c-5 -12 2 -15 38 -14 25 0 45 4 45 9 0 5 -8 9 -17 9 -10 0
-28 3 -39 6 -14 4 -23 0 -27 -10z"/>
<path d="M190 650 c0 -13 55 -19 62 -7 6 9 11 8 18 -3 8 -13 10 -12 10 3 0 14
-8 17 -45 15 -25 0 -45 -4 -45 -8z"/>
<path d="M300 645 c0 -10 10 -15 28 -15 26 1 26 1 8 15 -25 19 -36 19 -36 0z"/>
<path d="M412 638 c3 -7 23 -14 46 -16 33 -2 42 0 42 12 0 12 -11 16 -46 16
-32 0 -44 -4 -42 -12z"/>
<path d="M520 636 c0 -13 10 -16 50 -14 57 3 54 14 -7 24 -36 5 -43 4 -43 -10z"/>
<path d="M630 625 c0 -8 9 -15 20 -15 11 0 20 7 20 15 0 8 -9 15 -20 15 -11 0
-20 -7 -20 -15z"/>
<path d="M2460 620 c0 -22 1 -23 24 -14 23 9 20 34 -4 34 -13 0 -20 -7 -20
-20z"/>
<path d="M2520 625 c0 -11 12 -15 45 -15 33 0 45 4 45 15 0 11 -12 15 -45 15
-33 0 -45 -4 -45 -15z"/>
<path d="M66 615 c-4 -11 2 -15 24 -15 20 0 30 5 30 15 0 9 -9 15 -24 15 -13
0 -26 -7 -30 -15z"/>
<path d="M140 615 c0 -14 7 -16 35 -13 19 2 35 0 35 -4 0 -4 5 -8 10 -8 6 0
10 7 10 15 0 10 -10 15 -29 15 -16 0 -36 3 -45 6 -11 4 -16 1 -16 -11z"/>
<path d="M240 605 c0 -11 12 -15 44 -15 56 0 68 15 18 24 -54 9 -62 8 -62 -9z"/>
<path d="M350 601 c0 -21 65 -29 73 -8 4 10 6 10 6 0 1 -18 21 -16 21 2 0 11
-12 15 -50 15 -27 0 -50 -4 -50 -9z"/>
<path d="M460 595 c0 -11 12 -15 50 -15 29 0 50 5 50 11 0 6 -9 8 -20 4 -11
-4 -20 -2 -20 4 0 15 -27 14 -33 -1 -4 -10 -6 -10 -6 0 -1 17 -21 15 -21 -3z"/>
<path d="M610 591 c0 -15 49 -19 54 -5 4 10 -3 14 -24 14 -17 0 -30 -4 -30 -9z"/>
<path d="M2460 575 c0 -12 13 -15 55 -15 42 0 55 3 55 15 0 12 -13 15 -55 15
-42 0 -55 -3 -55 -15z"/>
<path d="M2590 575 c0 -9 9 -15 25 -15 18 0 23 4 19 15 -4 8 -15 15 -25 15
-10 0 -19 -7 -19 -15z"/>
<path d="M86 569 c7 -11 84 -12 84 -1 0 4 -20 8 -45 8 -24 1 -42 -3 -39 -7z"/>
<path d="M190 565 c0 -11 12 -15 45 -15 33 0 45 4 45 15 0 11 -12 15 -45 15
-33 0 -45 -4 -45 -15z"/>
<path d="M332 558 c3 -7 15 -15 28 -16 21 -3 22 -2 11 12 -16 19 -44 21 -39 4z"/>
<path d="M404 558 c-3 -5 -3 -12 1 -16 4 -4 10 -1 12 6 4 10 8 10 19 1 11 -9
14 -9 14 0 0 8 5 9 19 1 26 -13 31 -13 31 5 0 10 -12 14 -45 13 -25 0 -48 -5
-51 -10z"/>
<path d="M930 561 c8 -5 26 -12 40 -16 22 -7 23 -6 11 9 -7 9 -25 16 -40 16
-19 -1 -22 -3 -11 -9z"/>
<path d="M516 551 c-7 -10 27 -21 67 -21 17 0 27 5 27 15 0 11 -12 15 -44 15
-25 0 -47 -4 -50 -9z"/>
<path d="M2460 530 c0 -13 7 -20 20 -20 13 0 20 7 20 20 0 13 -7 20 -20 20
-13 0 -20 -7 -20 -20z"/>
<path d="M2530 530 c0 -17 7 -20 50 -20 48 0 50 1 40 20 -8 15 -21 20 -50 20
-33 0 -40 -3 -40 -20z"/>
<path d="M166 525 c4 -9 19 -15 35 -15 19 0 29 5 29 15 0 18 -16 20 -23 3 -4
-10 -6 -10 -6 0 -1 6 -10 12 -21 12 -13 0 -18 -5 -14 -15z"/>
<path d="M240 525 c0 -10 10 -15 29 -15 29 0 55 19 29 21 -7 0 -23 2 -35 5
-16 3 -23 -1 -23 -11z"/>
<path d="M790 530 c0 -3 59 -12 132 -19 72 -7 137 -15 145 -18 7 -3 13 1 13
10 0 9 -8 13 -22 10 -13 -2 -78 2 -145 10 -68 7 -123 11 -123 7z"/>
<path d="M1312 535 c10 -10 358 -22 358 -12 0 4 -33 7 -73 7 -41 0 -123 3
-183 6 -60 4 -106 3 -102 -1z"/>
<path d="M350 515 c0 -10 11 -15 35 -15 24 0 35 5 35 15 0 10 -11 15 -35 15
-24 0 -35 -5 -35 -15z"/>
<path d="M460 517 c0 -19 61 -32 72 -15 6 10 10 10 18 -2 8 -13 10 -12 10 3 0
13 -8 17 -34 17 -19 0 -41 3 -50 6 -10 4 -16 1 -16 -9z"/>
<path d="M2653 466 c0 -36 3 -63 7 -61 7 4 5 113 -2 121 -3 3 -5 -24 -5 -60z"/>
<path d="M570 505 c0 -9 9 -15 23 -15 12 0 32 -3 45 -6 16 -5 22 -2 22 10 0 9
-6 17 -12 17 -7 1 -28 3 -45 5 -24 3 -33 0 -33 -11z"/>
<path d="M0 500 c0 -5 7 -6 17 -3 11 4 14 3 9 -5 -5 -8 0 -12 12 -12 11 0 22
7 26 15 3 8 1 15 -3 15 -5 0 -12 -6 -14 -12 -4 -10 -6 -10 -6 0 -1 14 -41 17
-41 2z"/>
<path d="M80 496 c0 -12 11 -16 45 -16 25 0 45 4 45 10 0 5 -15 9 -33 8 -19
-1 -39 2 -45 6 -7 4 -12 1 -12 -8z"/>
<path d="M190 485 c0 -8 9 -15 20 -15 11 0 20 7 20 15 0 8 -9 15 -20 15 -11 0
-20 -7 -20 -15z"/>
<path d="M1170 492 c0 -5 109 -12 268 -16 147 -4 291 -9 320 -12 30 -4 52 -2
52 4 0 6 -112 12 -282 16 -156 4 -300 9 -320 12 -22 3 -38 2 -38 -4z"/>
<path d="M2460 479 c0 -19 4 -21 38 -15 20 3 45 6 55 6 9 0 17 7 17 15 0 12
-13 15 -55 15 -49 0 -55 -2 -55 -21z"/>
<path d="M290 474 c0 -10 13 -14 50 -14 38 0 50 4 50 15 0 8 -4 15 -10 15 -5
0 -10 -6 -10 -12 0 -9 -3 -10 -8 -2 -11 17 -72 16 -72 -2z"/>
<path d="M430 471 c0 -6 8 -9 18 -9 9 0 25 -3 35 -7 12 -5 17 -3 17 9 0 12
-10 16 -35 16 -19 0 -35 -4 -35 -9z"/>
<path d="M520 465 c0 -12 10 -15 45 -13 49 3 58 12 23 22 -41 10 -68 7 -68 -9z"/>
<path d="M1910 473 c0 -5 78 -7 172 -5 250 4 264 9 31 10 -112 1 -203 -1 -203
-5z"/>
<path d="M30 455 c0 -10 10 -15 31 -15 27 0 30 2 19 15 -7 8 -21 15 -31 15
-11 0 -19 -7 -19 -15z"/>
<path d="M133 447 c2 -7 22 -13 45 -15 32 -2 42 0 42 12 0 10 -12 14 -46 14
-30 0 -44 -4 -41 -11z"/>
<path d="M1268 453 c29 -2 74 -2 100 0 26 2 2 3 -53 3 -55 0 -76 -1 -47 -3z"/>
<path d="M236 441 c-7 -11 69 -25 84 -16 5 3 10 10 10 16 0 12 -87 12 -94 0z"/>
<path d="M340 435 c0 -10 9 -15 28 -15 15 1 36 0 46 -2 10 -2 21 3 24 10 3 10
-6 13 -35 11 -21 -2 -44 0 -51 5 -7 4 -12 1 -12 -9z"/>
<path d="M1563 443 c37 -2 97 -2 135 0 37 2 6 3 -68 3 -74 0 -105 -1 -67 -3z"/>
<path d="M2158 443 c29 -2 74 -2 100 0 26 2 2 3 -53 3 -55 0 -76 -1 -47 -3z"/>
<path d="M2456 435 c4 -8 15 -15 25 -15 10 0 19 7 19 15 0 9 -9 15 -25 15 -18
0 -23 -4 -19 -15z"/>
<path d="M2520 435 c0 -12 13 -15 58 -14 31 0 51 3 43 6 -11 5 -11 7 0 14 10
6 4 9 -18 9 -19 0 -33 -5 -33 -12 0 -9 -3 -9 -12 0 -17 17 -38 15 -38 -3z"/>
<path d="M450 425 c0 -10 10 -15 29 -15 16 0 31 6 35 15 4 12 -3 15 -29 15
-24 0 -35 -5 -35 -15z"/>
<path d="M0 415 c0 -10 10 -15 30 -15 21 0 30 5 30 16 0 14 -3 14 -15 4 -10
-9 -15 -9 -15 -1 0 6 -7 11 -15 11 -8 0 -15 -7 -15 -15z"/>
<path d="M560 421 c0 -12 26 -21 61 -21 19 0 29 5 29 15 0 11 -12 15 -45 15
-25 0 -45 -4 -45 -9z"/>
<path d="M80 410 c0 -5 11 -10 24 -10 14 0 28 5 31 10 4 6 -7 10 -24 10 -17 0
-31 -4 -31 -10z"/>
<path d="M310 395 c0 -10 11 -15 35 -15 36 0 47 13 19 24 -28 11 -54 6 -54 -9z"/>
<path d="M400 385 c0 -11 12 -15 45 -15 36 0 45 3 45 18 0 13 -2 14 -9 3 -6
-9 -11 -10 -15 -2 -11 17 -66 14 -66 -4z"/>
<path d="M510 385 c0 -13 48 -30 57 -21 9 9 -7 24 -32 28 -16 3 -25 1 -25 -7z"/>
<path d="M2460 383 c0 -9 17 -13 55 -13 42 0 55 3 55 15 0 12 -12 15 -55 13
-37 -2 -55 -7 -55 -15z"/>
<path d="M20 375 c0 -11 12 -15 45 -15 26 0 45 5 45 11 0 7 -9 9 -21 6 -12 -3
-32 -2 -45 3 -19 7 -24 6 -24 -5z"/>
<path d="M620 376 c0 -8 6 -17 13 -19 6 -3 0 -6 -15 -6 -16 -1 -28 -6 -28 -12
0 -8 -5 -8 -15 1 -12 10 -15 10 -15 -4 0 -11 9 -16 29 -16 16 0 36 -3 45 -6
13 -5 16 2 16 35 0 30 -4 41 -15 41 -8 0 -15 -6 -15 -14z"/>
<path d="M120 365 c0 -9 9 -15 25 -15 16 0 25 6 25 15 0 9 -9 15 -25 15 -16 0
-25 -6 -25 -15z"/>
<path d="M780 363 c0 -15 2 -15 9 -4 8 12 27 12 133 -3 67 -9 132 -15 143 -15
25 2 -209 37 -252 38 -25 1 -33 -3 -33 -16z"/>
<path d="M232 358 c7 -20 58 -23 58 -4 0 11 -10 16 -31 16 -20 0 -29 -4 -27
-12z"/>
<path d="M340 350 c0 -5 7 -7 15 -4 8 4 15 1 15 -5 0 -6 14 -11 30 -11 20 0
30 5 30 15 0 18 -16 20 -23 3 -4 -10 -6 -10 -6 0 -1 14 -61 17 -61 2z"/>
<path d="M450 346 c0 -8 17 -16 47 -20 25 -3 48 -5 49 -3 10 9 -17 25 -53 31
-33 5 -43 3 -43 -8z"/>
<path d="M2457 340 c-4 -16 -1 -20 11 -18 19 4 23 29 6 35 -6 2 -14 -6 -17
-17z"/>
<path d="M2570 345 c0 -8 5 -15 11 -15 5 0 7 5 4 10 -3 6 3 10 14 10 10 0 21
-5 23 -12 3 -7 7 -6 11 5 5 14 0 17 -28 17 -24 0 -35 -5 -35 -15z"/>
<path d="M80 330 c0 -5 3 -10 8 -11 4 0 22 -2 40 -5 24 -3 32 0 32 11 0 11
-11 15 -40 15 -22 0 -40 -4 -40 -10z"/>
<path d="M1170 325 c0 -6 39 -10 98 -10 53 0 196 -3 317 -7 206 -6 209 -6 50
3 -422 23 -465 24 -465 14z"/>
<path d="M280 317 c0 -9 13 -17 30 -19 21 -3 30 0 30 9 0 8 -8 13 -17 11 -10
-1 -24 1 -30 5 -8 5 -13 3 -13 -6z"/>
<path d="M2650 277 c0 -31 3 -57 8 -57 9 0 7 98 -2 107 -3 4 -6 -19 -6 -50z"/>
<path d="M392 308 c3 -7 22 -14 43 -16 34 -3 36 -2 22 12 -19 19 -71 22 -65 4z"/>
<path d="M2507 313 c-18 -17 -5 -33 28 -33 23 0 35 5 35 14 0 21 -47 35 -63
19z"/>
<path d="M500 295 c0 -10 11 -15 35 -15 24 0 35 5 35 15 0 10 -11 15 -35 15
-24 0 -35 -5 -35 -15z"/>
<path d="M1910 303 c0 -5 33 -7 72 -5 125 4 137 9 31 10 -57 1 -103 -1 -103
-5z"/>
<path d="M2453 295 c0 -8 9 -15 19 -15 10 0 18 7 18 15 0 8 -8 15 -18 15 -10
0 -19 -7 -19 -15z"/>
<path d="M50 291 c0 -5 14 -11 30 -13 20 -3 30 0 30 9 0 8 -12 13 -30 13 -16
0 -30 -4 -30 -9z"/>
<path d="M237 284 c-16 -16 -5 -23 38 -21 42 2 66 17 28 17 -10 0 -27 3 -38 6
-11 3 -24 2 -28 -2z"/>
<path d="M340 266 c0 -11 10 -16 31 -16 38 0 35 24 -4 28 -19 2 -27 -1 -27
-12z"/>
<path d="M452 258 c7 -19 38 -22 38 -4 0 10 -9 16 -21 16 -12 0 -19 -5 -17
-12z"/>
<path d="M500 255 c0 -8 9 -15 20 -15 11 0 20 7 20 15 0 8 -9 15 -20 15 -11 0
-20 -7 -20 -15z"/>
<path d="M2450 260 c0 -5 6 -10 13 -10 9 0 9 -2 1 -8 -7 -4 -12 -35 -12 -72
-1 -56 1 -63 12 -47 7 9 18 17 25 17 18 0 13 28 -6 33 -17 4 -17 5 0 6 9 0 17
8 17 17 0 10 6 14 15 10 8 -3 15 -1 15 4 0 6 -17 11 -37 11 -22 1 -30 3 -18 6
28 7 38 27 17 35 -25 10 -42 9 -42 -2z"/>
<path d="M110 244 c0 -8 11 -14 25 -14 14 0 25 4 25 9 0 5 -11 11 -25 13 -17
4 -25 1 -25 -8z"/>
<path d="M588 248 c17 -17 62 -19 62 -2 0 10 -12 14 -37 14 -28 0 -34 -3 -25
-12z"/>
<path d="M780 253 c0 -5 24 -9 53 -9 42 -1 46 0 22 6 -41 10 -75 12 -75 3z"/>
<path d="M2520 249 c0 -6 9 -9 20 -6 11 3 23 1 26 -4 8 -14 24 -10 24 6 0 10
-11 15 -35 15 -19 0 -35 -5 -35 -11z"/>
<path d="M170 240 c0 -7 8 -9 20 -5 11 4 20 2 20 -4 0 -6 12 -11 26 -11 16 0
24 5 22 12 -6 16 -88 23 -88 8z"/>
<path d="M280 229 c0 -5 6 -9 13 -9 6 0 23 -3 37 -7 22 -6 23 -4 12 9 -13 16
-62 22 -62 7z"/>
<path d="M925 229 c22 -4 51 -8 65 -7 16 0 11 3 -15 9 -22 4 -51 8 -65 7 -16
0 -11 -3 15 -9z"/>
<path d="M70 203 c0 -7 9 -13 20 -13 11 0 20 6 20 14 0 9 -9 14 -20 13 -11 -1
-20 -7 -20 -14z"/>
<path d="M592 207 c7 -7 22 -17 33 -21 19 -8 19 -9 -5 -16 -14 -3 -26 -3 -28
2 -7 16 -31 8 -25 -8 4 -10 14 -14 29 -11 13 2 24 0 24 -4 0 -5 7 -9 15 -9 11
0 15 11 15 40 0 38 -13 54 -23 28 -4 -10 -6 -10 -6 0 -1 6 -10 12 -22 12 -17
0 -18 -2 -7 -13z"/>
<path d="M120 201 c0 -4 8 -7 18 -8 9 -1 27 -4 40 -8 15 -5 22 -3 22 6 0 9
-14 15 -40 16 -22 0 -40 -2 -40 -6z"/>
<path d="M1240 190 c81 -7 150 -11 440 -26 69 -4 123 -4 120 -1 -3 3 -138 12
-300 21 -304 16 -409 19 -260 6z"/>
<path d="M70 162 c0 -7 4 -11 8 -8 4 3 25 1 45 -4 28 -6 37 -5 37 5 0 8 -17
14 -45 17 -32 2 -45 -1 -45 -10z"/>
<path d="M2088 173 c23 -2 59 -2 80 0 20 2 1 4 -43 4 -44 0 -61 -2 -37 -4z"/>
<path d="M180 156 c0 -12 10 -16 39 -16 22 0 43 5 46 10 4 6 -6 10 -24 10 -16
0 -36 3 -45 6 -11 4 -16 1 -16 -10z"/>
<path d="M280 145 c0 -10 10 -15 34 -15 19 0 41 -3 50 -6 11 -4 16 -1 16 11 0
14 -6 16 -30 12 -17 -4 -30 -2 -30 3 0 6 -9 10 -20 10 -11 0 -20 -7 -20 -15z"/>
<path d="M715 137 c40 -9 50 -16 47 -30 -3 -14 2 -17 25 -15 16 1 34 -1 41 -6
7 -4 12 -2 12 5 0 10 3 10 12 1 7 -7 37 -12 67 -12 31 -1 74 -8 96 -16 22 -8
61 -21 88 -28 42 -12 47 -11 47 3 0 13 2 14 9 2 12 -19 121 -26 121 -8 0 9 2
9 8 1 9 -15 121 -23 126 -9 3 6 8 6 13 -1 5 -7 36 -11 75 -10 38 1 68 -2 68
-7 0 -4 129 -5 288 -2 301 6 349 8 474 19 62 6 77 5 80 -7 2 -10 9 -7 27 11
l25 25 -205 -7 c-112 -4 -251 -11 -308 -14 -57 -4 -154 -4 -215 0 -61 4 -226
14 -366 23 -140 8 -286 22 -325 30 -155 32 -292 57 -335 60 l-45 4 50 -12z"/>
<path d="M2450 80 c0 -11 5 -20 10 -20 6 0 13 0 18 0 4 0 7 6 7 13 0 6 5 15
10 19 6 4 -2 8 -17 8 -21 0 -28 -5 -28 -20z"/>
<path d="M685 71 c-3 -6 3 -10 12 -10 10 1 27 -1 38 -4 11 -2 14 -2 8 0 -7 3
-13 9 -13 14 0 12 -37 12 -45 0z"/>
<path d="M2773 58 c15 -5 27 -14 27 -19 0 -18 16 -8 17 11 2 17 -4 20 -35 19
-37 -1 -37 -1 -9 -11z"/>
<path d="M910 51 c0 -10 24 -21 46 -21 8 0 11 6 8 15 -6 16 -54 21 -54 6z"/>
</g>
</svg>
